HIERARCHY
ROOT Hips
{
	OFFSET 0.000000 0.000000 0.000000
	CHANNELS 6 Xposition Yposition Zposition Zrotation Yrotation Xrotation 
	JOINT LHipJoint
	{
		OFFSET 0.000000 0.000000 0.000000
		CHANNELS 3 Zrotation Yrotation Xrotation
		JOINT LeftUpLeg
		{
			OFFSET 1.363060 -1.794630 0.839290
			CHANNELS 3 Zrotation Yrotation Xrotation
			JOINT LeftLeg
			{
				OFFSET 2.448110 -6.726130 0.000000
				CHANNELS 3 Zrotation Yrotation Xrotation
				JOINT LeftFoot
				{
					OFFSET 2.562200 -7.039590 0.000000
					CHANNELS 3 Zrotation Yrotation Xrotation
					JOINT LeftToeBase
					{
						OFFSET 0.157640 -0.433110 2.322550
						CHANNELS 3 Zrotation Yrotation Xrotation
						End Site
						{
							OFFSET 0.000000 0.000000 0.000000
						}
					}
				}
			}
		}
	}
	JOINT RHipJoint
	{
		OFFSET 0.000000 0.000000 0.000000
		CHANNELS 3 Zrotation Yrotation Xrotation
		JOINT RightUpLeg
		{
			OFFSET -1.305520 -1.794630 0.839290
			CHANNELS 3 Zrotation Yrotation Xrotation
			JOINT RightLeg
			{
				OFFSET -2.542530 -6.985550 0.000000
				CHANNELS 3 Zrotation Yrotation Xrotation
				JOINT RightFoot
				{
					OFFSET -2.568260 -7.056230 0.000000
					CHANNELS 3 Zrotation Yrotation Xrotation
					JOINT RightToeBase
					{
						OFFSET -0.164730 -0.452590 2.363150
						CHANNELS 3 Zrotation Yrotation Xrotation
						End Site
						{
							OFFSET 0.000000 0.000000 0.000000
						}
					}
				}
			}
		}
	}
	JOINT LowerBack
	{
		OFFSET 0.000000 0.000000 0.000000
		CHANNELS 3 Zrotation Yrotation Xrotation
		JOINT Spine
		{
			OFFSET 0.028270 2.035590 -0.193380
			CHANNELS 3 Zrotation Yrotation Xrotation
			JOINT Spine1
			{
				OFFSET 0.056720 2.048850 -0.042750
				CHANNELS 3 Zrotation Yrotation Xrotation
				JOINT Neck
				{
					OFFSET 0.000000 0.000000 0.000000
					CHANNELS 3 Zrotation Yrotation Xrotation
					JOINT Neck1
					{
						OFFSET -0.054170 1.746240 0.172020
						CHANNELS 3 Zrotation Yrotation Xrotation
						JOINT Head
						{
							OFFSET 0.104070 1.761360 -0.123970
							CHANNELS 3 Zrotation Yrotation Xrotation
							End Site
							{
								OFFSET 0.000000 0.000000 0.000000
							}
						}
					}
				}
				JOINT LeftShoulder
				{
					OFFSET 0.000000 0.000000 0.000000
					CHANNELS 3 Zrotation Yrotation Xrotation
					JOINT LeftArm
					{
						OFFSET 3.362410 1.200890 -0.311210
						CHANNELS 3 Zrotation Yrotation Xrotation
						JOINT LeftForeArm
						{
							OFFSET 4.983000 -0.000000 -0.000000
							CHANNELS 3 Zrotation Yrotation Xrotation
							JOINT LeftHand
							{
								OFFSET 3.483560 -0.000000 -0.000000
								CHANNELS 3 Zrotation Yrotation Xrotation
								JOINT LeftFingerBase
								{
									OFFSET 0.000000 0.000000 0.000000
									CHANNELS 3 Zrotation Yrotation Xrotation
									JOINT LeftHandIndex1
									{
										OFFSET 0.715260 -0.000000 -0.000000
										CHANNELS 3 Zrotation Yrotation Xrotation
										End Site
										{
											OFFSET 0.000000 0.000000 0.000000
										}
									}
								}
								JOINT LThumb
								{
									OFFSET 0.000000 0.000000 0.000000
									CHANNELS 3 Zrotation Yrotation Xrotation
									End Site
									{
										OFFSET 0.000000 0.000000 0.000000
									}
								}
							}
						}
					}
				}
				JOINT RightShoulder
				{
					OFFSET 0.000000 0.000000 0.000000
					CHANNELS 3 Zrotation Yrotation Xrotation
					JOINT RightArm
					{
						OFFSET -3.136600 1.374050 -0.404650
						CHANNELS 3 Zrotation Yrotation Xrotation
						JOINT RightForeArm
						{
							OFFSET -5.241900 -0.000000 -0.000000
							CHANNELS 3 Zrotation Yrotation Xrotation
							JOINT RightHand
							{
								OFFSET -3.444170 -0.000000 -0.000000
								CHANNELS 3 Zrotation Yrotation Xrotation
								JOINT RightFingerBase
								{
									OFFSET 0.000000 0.000000 0.000000
									CHANNELS 3 Zrotation Yrotation Xrotation
									JOINT RightHandIndex1
									{
										OFFSET -0.622530 -0.000000 -0.000000
										CHANNELS 3 Zrotation Yrotation Xrotation
										End Site
										{
											OFFSET 0.000000 0.000000 0.000000
										}
									}
								}
								JOINT RThumb
								{
									OFFSET 0.000000 0.000000 0.000000
									CHANNELS 3 Zrotation Yrotation Xrotation
									End Site
									{
										OFFSET 0.000000 0.000000 0.000000
									}
								}
							}
						}
					}
				}
			}
		}
	}
}
MOTION
Frames: 8
Frame Time: 0.008333
3.678992 17.255924 37.149598 -147.624013 -88.275217 167.330405 11.767579 -3.448276 -5.638568 -24.176059 -11.301900 -29.191691 -5.402777 14.051043 24.367368 -0.636105 8.316142 14.082351 0.092200 -1.958800 -5.391900 -14.800070 4.134714 -6.095788 17.987744 20.249750 -38.784377 0.199490 -23.054570 40.474188 3.368098 -12.601059 5.466158 -0.074700 -1.763300 4.852000 -2.141301 2.032618 -2.214337 1.013299 2.248669 -5.196678 -1.182515 1.428903 -1.589397 7.350171 11.521624 -15.046077 11.042458 12.689991 6.058898 1.365000 7.350900 9.790800 -2.399270 -10.539866 -2.064951 -76.990289 -5.443525 38.687856 24.929051 -29.099094 -11.256062 1.195725 -4.035379 -54.262827 11.030802 9.157542 2.988300 -7.125000 0.000000 0.000000 -12.266800 42.441200 0.787400 6.487286 12.538321 -0.614675 80.008080 -0.083245 18.527284 -46.553349 42.454120 -27.177621 -1.746158 4.183343 -56.511557 -28.643453 -39.639995 22.304500 7.125000 0.000000 0.000000 12.925400 -76.910700 -9.693000 
3.704158 17.221909 37.156148 -146.515665 -88.109323 166.183582 11.888863 -3.425641 -5.659249 -24.192926 -10.981502 -29.765382 -5.249864 14.399081 25.165260 -0.475880 7.792744 13.845085 0.088300 -1.916600 -5.275300 -14.981867 4.103789 -6.142521 18.335243 19.806081 -39.621661 -0.165649 -23.479462 41.724782 2.862928 -11.223786 5.677772 -0.069300 -1.698600 4.673400 -2.165698 2.014144 -1.826052 1.037433 2.215286 -5.183152 -1.054788 1.429840 -1.696976 7.419090 11.628472 -14.918279 11.011512 12.810882 6.016715 1.318500 7.402700 9.764600 -2.276511 -10.533868 -2.048819 -77.024757 -5.585609 38.806331 25.547180 -29.656822 -11.757575 1.252683 -4.017067 -54.587519 10.823326 9.232470 2.956800 -7.125000 0.000000 0.000000 -12.499100 42.514100 0.779900 6.436766 12.534586 -0.577885 80.037682 -0.385522 19.482512 -48.340946 43.240919 -28.813284 -1.851609 3.976262 -57.117496 -27.160311 -39.492470 20.952200 7.125000 0.000000 0.000000 15.475600 -76.176900 -11.385300 
3.728979 17.186975 37.162469 -145.328273 -87.932746 164.987828 12.027307 -3.402087 -5.690120 -24.187445 -10.715921 -30.365310 -5.078827 14.774624 26.005437 -0.349243 7.338839 13.546231 0.085500 -1.885800 -5.190100 -15.155211 4.082871 -6.188676 18.629345 19.468768 -40.415536 -0.518569 -23.883528 42.904216 2.391222 -9.923179 5.878609 -0.048700 -1.424700 3.918200 -1.971972 2.083720 -1.544036 0.991021 2.337600 -5.145942 -1.348056 1.460456 -1.611122 7.546392 11.636493 -14.957009 11.062518 12.776055 5.963829 1.347000 7.392800 9.707500 -2.206373 -10.519381 -2.007809 -76.656022 -5.878192 39.220871 26.158369 -30.187599 -12.264050 1.333633 -3.987877 -54.820436 10.394919 9.399072 2.891800 -7.125000 0.000000 0.000000 -12.979200 42.671100 0.759700 6.300258 12.501309 -0.567677 80.325131 -0.570260 20.171898 -50.108370 44.015515 -30.487904 -1.950867 3.760247 -57.801650 -25.645750 -39.340508 19.592200 7.125000 0.000000 0.000000 17.854000 -75.421200 -12.874700 
3.752422 17.149053 37.169249 -142.699693 -87.788238 162.404951 12.165075 -3.377231 -5.716138 -24.140862 -10.444441 -31.031155 -4.913301 15.141086 26.809271 -0.188878 6.824685 13.317797 0.085900 -1.890000 -5.201700 -15.320930 4.074810 -6.226218 18.923647 19.180553 -41.204129 -0.904744 -24.286171 44.049205 2.245752 -9.424760 5.983705 -0.013800 -0.757500 2.081700 -1.805936 2.128770 -1.288785 0.980970 2.390586 -5.133452 -1.537819 1.484436 -1.692948 8.000170 11.737774 -14.796669 10.903225 12.763502 5.974890 1.128500 7.397200 9.759800 -2.084950 -10.517884 -1.969790 -76.425645 -5.971303 39.563679 26.726575 -30.681404 -12.726705 1.343004 -3.952863 -54.971785 10.287503 9.189059 2.811200 -7.125000 0.000000 0.000000 -13.037200 42.432200 0.841600 6.267108 12.464465 -0.549814 80.514857 -0.857503 20.785974 -51.690945 44.657602 -32.011091 -2.057258 3.545554 -58.354016 -23.772190 -39.344748 18.030800 7.125000 0.000000 0.000000 20.954500 -74.687500 -14.828500 
3.775290 17.112051 37.175454 -141.182147 -87.625150 160.904153 12.303090 -3.354299 -5.750319 -24.112499 -10.201012 -31.627889 -4.737132 15.498895 27.613539 -0.058097 6.372350 13.044666 0.082200 -1.849800 -5.090900 -15.484185 4.056396 -6.253105 19.183618 18.974639 -41.955484 -1.289135 -24.682974 45.195925 2.034076 -8.753370 6.063148 -0.003000 -0.356200 0.978800 -1.653418 2.181205 -1.030989 0.963310 2.465804 -5.109285 -1.725148 1.511263 -1.696401 8.330798 11.802601 -14.726159 10.796137 12.740659 5.975219 0.979600 7.393900 9.792600 -1.980405 -10.512860 -1.932291 -76.196364 -6.162053 39.832562 27.292890 -31.160219 -13.199990 1.380462 -3.922355 -55.117651 10.044425 9.159911 2.742800 -7.125000 0.000000 0.000000 -13.278500 42.383800 0.873900 6.213458 12.428338 -0.528195 80.658289 -1.095666 21.422967 -53.312010 45.288923 -33.598705 -2.155896 3.322144 -58.975188 -21.891552 -39.295349 16.468000 7.125000 0.000000 0.000000 23.732600 -73.901400 -16.451500 
3.796779 17.075508 37.180855 -139.975003 -87.455306 159.717578 12.437938 -3.332623 -5.788389 -24.076655 -9.977488 -32.193450 -4.557778 15.843551 28.394214 0.056237 5.963125 12.769432 0.079000 -1.813700 -4.990900 -15.643750 4.036337 -6.269973 19.410864 18.851087 -42.669215 -1.682768 -25.075241 46.328344 1.897207 -8.266484 6.083088 0.000000 -0.009200 0.025300 -1.505478 2.238241 -0.799279 0.945612 2.547875 -5.083881 -1.908814 1.540200 -1.683754 8.658901 11.854247 -14.660774 10.700798 12.701280 5.992786 0.833900 7.385800 9.834300 -1.883871 -10.506134 -1.897543 -75.992133 -6.368008 40.008583 27.813676 -31.590173 -13.639557 1.413898 -3.892504 -55.169491 9.794707 9.137853 2.674500 -7.125000 0.000000 0.000000 -13.529700 42.342800 0.905100 6.167649 12.392181 -0.504128 80.745666 -1.330197 22.042684 -54.835417 45.859576 -35.118787 -2.249323 3.091684 -59.655597 -19.840867 -39.212732 14.794100 7.125000 0.000000 0.000000 26.479700 -73.030800 -17.933700 
3.816774 17.040344 37.185222 -139.290886 -87.278655 159.052588 12.565106 -3.312869 -5.828534 -24.039335 -9.772563 -32.713701 -4.379990 16.166494 29.134036 0.151862 5.605036 12.495788 0.075900 -1.777000 -4.889800 -15.800659 4.011507 -6.277452 19.605240 18.786366 -43.350407 -2.091279 -25.465108 47.466623 1.816812 -7.918639 6.044761 -0.001400 0.240500 -0.660700 -1.392448 2.294506 -0.587041 0.930730 2.629549 -5.059075 -2.051636 1.570095 -1.668655 8.935828 11.886737 -14.586661 10.651321 12.654182 6.025038 0.722200 7.377200 9.869500 -1.800361 -10.496088 -1.870044 -75.847780 -6.581580 40.056892 28.278231 -31.963367 -14.033700 1.440934 -3.865534 -55.121776 9.564685 9.121021 2.612000 -7.125000 0.000000 0.000000 -13.764800 42.309500 0.933000 6.127043 12.361263 -0.475925 80.757925 -1.574882 22.667912 -56.256350 46.373151 -36.561756 -2.335832 2.853991 -60.411466 -17.626925 -39.094984 13.021100 7.125000 0.000000 0.000000 29.177400 -72.081600 -19.255000 
3.835275 17.006329 37.188439 -139.211946 -87.101379 158.992307 12.684741 -3.295544 -5.869766 -24.010785 -9.580954 -33.195854 -4.205179 16.469335 29.836533 0.233890 5.285450 12.225161 0.072600 -1.738100 -4.782500 -15.952426 3.980307 -6.279592 19.767403 18.738185 -44.003081 -2.512932 -25.844890 48.608644 1.774362 -7.666227 5.966175 -0.003700 0.393000 -1.079800 -1.321085 2.347232 -0.400092 0.916379 2.710022 -5.033935 -2.156002 1.599348 -1.641637 9.132693 11.895668 -14.505505 10.675692 12.602458 6.068341 0.671300 7.370100 9.883500 -1.734678 -10.478402 -1.849860 -75.747518 -6.800588 39.997109 28.691037 -32.287387 -14.386280 1.463535 -3.840477 -55.004975 9.345732 9.105858 2.552600 -7.125000 0.000000 0.000000 -13.990200 42.279100 0.959700 6.083661 12.334829 -0.444010 80.702439 -1.826104 23.304102 -57.578458 46.838822 -37.927613 -2.411078 2.610120 -61.255165 -15.290801 -38.918648 11.181300 7.125000 0.000000 0.000000 31.732000 -71.054000 -20.342400 
